<svg width="25" height="14" viewBox="0 0 25 14" fill="none" xmlns="http://www.w3.org/2000/svg">
<path d="M23.75 2.41667H1.25C0.918479 2.41667 0.600537 2.28936 0.366116 2.06275C0.131696 1.83615 0 1.5288 0 1.20833C0 0.887863 0.131696 0.580519 0.366116 0.353912C0.600537 0.127306 0.918479 0 1.25 0H23.75C24.0815 0 24.3995 0.127306 24.6339 0.353912C24.8683 0.580519 25 0.887863 25 1.20833C25 1.5288 24.8683 1.83615 24.6339 2.06275C24.3995 2.28936 24.0815 2.41667 23.75 2.41667ZM19.5833 8.05555H5.41667C5.08514 8.05555 4.7672 7.92825 4.53278 7.70164C4.29836 7.47503 4.16667 7.16769 4.16667 6.84722C4.16667 6.52675 4.29836 6.21941 4.53278 5.9928C4.7672 5.76619 5.08514 5.63889 5.41667 5.63889H19.5833C19.9148 5.63889 20.2328 5.76619 20.4672 5.9928C20.7016 6.21941 20.8333 6.52675 20.8333 6.84722C20.8333 7.16769 20.7016 7.47503 20.4672 7.70164C20.2328 7.92825 19.9148 8.05555 19.5833 8.05555ZM14.5833 13.6944H10.4167C10.0851 13.6944 9.7672 13.5671 9.53278 13.3405C9.29836 13.1139 9.16666 12.8066 9.16666 12.4861C9.16666 12.1656 9.29836 11.8583 9.53278 11.6317C9.7672 11.4051 10.0851 11.2778 10.4167 11.2778H14.5833C14.9148 11.2778 15.2328 11.4051 15.4672 11.6317C15.7016 11.8583 15.8333 12.1656 15.8333 12.4861C15.8333 12.8066 15.7016 13.1139 15.4672 13.3405C15.2328 13.5671 14.9148 13.6944 14.5833 13.6944Z" fill="#F8F1E9"/>
</svg>
