<svg width="14" height="17" viewBox="0 0 14 17" fill="none" xmlns="http://www.w3.org/2000/svg">
<path fill-rule="evenodd" clip-rule="evenodd" d="M6.91865 0C5.92254 0 4.96724 0.395701 4.26289 1.10005C3.55854 1.8044 3.16283 2.75971 3.16283 3.75581C3.16283 4.75192 3.55854 5.70722 4.26289 6.41157C4.96724 7.11593 5.92254 7.51163 6.91865 7.51163C7.91475 7.51163 8.87006 7.11593 9.57441 6.41157C10.2788 5.70722 10.6745 4.75192 10.6745 3.75581C10.6745 2.75971 10.2788 1.8044 9.57441 1.10005C8.87006 0.395701 7.91475 0 6.91865 0ZM4.34888 3.75581C4.34888 3.07427 4.61962 2.42064 5.10155 1.93871C5.58347 1.45679 6.2371 1.18605 6.91865 1.18605C7.60019 1.18605 8.25382 1.45679 8.73575 1.93871C9.21767 2.42064 9.48842 3.07427 9.48842 3.75581C9.48842 4.43736 9.21767 5.09099 8.73575 5.57291C8.25382 6.05484 7.60019 6.32558 6.91865 6.32558C6.2371 6.32558 5.58347 6.05484 5.10155 5.57291C4.61962 5.09099 4.34888 4.43736 4.34888 3.75581ZM6.91865 8.69767C5.08976 8.69767 3.404 9.11358 2.15549 9.81572C0.92516 10.5084 4.42015e-05 11.5568 4.42015e-05 12.8488V12.9295C-0.000746496 13.8483 -0.00153726 15.0011 1.00976 15.825C1.50711 16.2299 2.20372 16.5185 3.14465 16.7082C4.08716 16.8996 5.3167 17 6.91865 17C8.5206 17 9.74935 16.8996 10.6934 16.7082C11.6344 16.5185 12.3302 16.2299 12.8283 15.825C13.8396 15.0011 13.838 13.8483 13.8373 12.9295V12.8488C13.8373 11.5568 12.9121 10.5084 11.6826 9.81572C10.4333 9.11358 8.74832 8.69767 6.91865 8.69767ZM1.18609 12.8488C1.18609 12.176 1.6779 11.4453 2.73665 10.85C3.77721 10.2648 5.25423 9.88372 6.91944 9.88372C8.58307 9.88372 10.0601 10.2648 11.1006 10.85C12.1602 11.4453 12.6512 12.176 12.6512 12.8488C12.6512 13.8831 12.6196 14.465 12.0787 14.9046C11.7862 15.1434 11.296 15.3767 10.4578 15.5459C9.62204 15.7151 8.47949 15.814 6.91865 15.814C5.35781 15.814 4.21446 15.7151 3.37949 15.5459C2.54135 15.3767 2.05111 15.1434 1.75856 14.9054C1.21772 14.465 1.18609 13.8831 1.18609 12.8488Z" fill="black"/>
</svg>
