<svg width="28" height="34" viewBox="0 0 28 34" fill="none" xmlns="http://www.w3.org/2000/svg">
<path d="M1.75001 30.4063H26.2501C26.7459 30.4063 27.1618 30.5743 27.4978 30.9103C27.8338 31.2463 28.0013 31.6617 28.0001 32.1563C27.9989 32.651 27.8309 33.0669 27.4961 33.4041C27.1613 33.7413 26.7459 33.9087 26.2501 33.9063H1.75001C1.25418 33.9063 0.838842 33.7383 0.504008 33.4023C0.169173 33.0663 0.0011727 32.651 6.03449e-06 32.1563C-0.00116064 31.6617 0.16684 31.2463 0.504008 30.9103C0.841175 30.5743 1.25651 30.4063 1.75001 30.4063ZM10.5 26.9063C10.0042 26.9063 9.58887 26.7383 9.25403 26.4023C8.9192 26.0663 8.7512 25.651 8.75003 25.1563V14.6563H5.33752C4.60835 14.6563 4.08335 14.3285 3.76252 13.6728C3.44168 13.0171 3.50002 12.397 3.93752 11.8125L12.6 0.700002C12.775 0.466668 12.9868 0.291667 13.2353 0.175C13.4838 0.0583333 13.7387 0 14 0C14.2614 0 14.5169 0.0583333 14.7666 0.175C15.0162 0.291667 15.2274 0.466668 15.4001 0.700002L24.0626 11.8125C24.5001 12.3959 24.5584 13.016 24.2376 13.6728C23.9167 14.3296 23.3917 14.6575 22.6626 14.6563H19.2501V25.1563C19.2501 25.6522 19.0821 26.0681 18.7461 26.4041C18.4101 26.7401 17.9947 26.9075 17.5001 26.9063H10.5Z" fill="black"/>
</svg>
