<svg width="14" height="17" viewBox="0 0 14 17" fill="none" xmlns="http://www.w3.org/2000/svg">
<path fill-rule="evenodd" clip-rule="evenodd" d="M6.91875 0C5.92263 0 4.96731 0.395706 4.26295 1.10007C3.55859 1.80443 3.16288 2.75975 3.16288 3.75587C3.16288 4.75199 3.55859 5.70731 4.26295 6.41167C4.96731 7.11603 5.92263 7.51174 6.91875 7.51174C7.91487 7.51174 8.87019 7.11603 9.57455 6.41167C10.2789 5.70731 10.6746 4.75199 10.6746 3.75587C10.6746 2.75975 10.2789 1.80443 9.57455 1.10007C8.87019 0.395706 7.91487 0 6.91875 0ZM4.34895 3.75587C4.34895 3.07431 4.61969 2.42067 5.10162 1.93874C5.58356 1.45681 6.2372 1.18606 6.91875 1.18606C7.60031 1.18606 8.25395 1.45681 8.73588 1.93874C9.21781 2.42067 9.48856 3.07431 9.48856 3.75587C9.48856 4.43742 9.21781 5.09106 8.73588 5.573C8.25395 6.05493 7.60031 6.32567 6.91875 6.32567C6.2372 6.32567 5.58356 6.05493 5.10162 5.573C4.61969 5.09106 4.34895 4.43742 4.34895 3.75587ZM6.91875 8.6978C5.08984 8.6978 3.40405 9.11372 2.15552 9.81587C0.925174 10.5085 4.42022e-05 11.557 4.42022e-05 12.849V12.9297C-0.000746507 13.8485 -0.00153728 15.0013 1.00978 15.8253C1.50714 16.2301 2.20375 16.5187 3.1447 16.7085C4.08722 16.8998 5.31677 17.0003 6.91875 17.0003C8.52073 17.0003 9.74949 16.8998 10.6936 16.7085C11.6345 16.5187 12.3304 16.2301 12.8285 15.8253C13.8398 15.0013 13.8382 13.8485 13.8375 12.9297V12.849C13.8375 11.557 12.9123 10.5085 11.6828 9.81587C10.4335 9.11372 8.74845 8.6978 6.91875 8.6978ZM1.18611 12.849C1.18611 12.1761 1.67793 11.4455 2.73669 10.8501C3.77726 10.265 5.25431 9.88387 6.91954 9.88387C8.58319 9.88387 10.0602 10.265 11.1008 10.8501C12.1604 11.4455 12.6514 12.1761 12.6514 12.849C12.6514 13.8833 12.6198 14.4652 12.0789 14.9049C11.7864 15.1437 11.2961 15.3769 10.458 15.5461C9.62219 15.7153 8.47961 15.8142 6.91875 15.8142C5.35789 15.8142 4.21452 15.7153 3.37954 15.5461C2.54138 15.3769 2.05114 15.1437 1.75858 14.9057C1.21774 14.4652 1.18611 13.8833 1.18611 12.849Z" fill="black"/>
</svg>
