<svg width="21" height="20" viewBox="0 0 21 20" fill="none" xmlns="http://www.w3.org/2000/svg">
<path d="M1 20C0.716667 20 0.479333 19.904 0.288 19.712C0.0966668 19.52 0.000666667 19.2827 0 19V11L2.1 5C2.2 4.7 2.37933 4.45833 2.638 4.275C2.89667 4.09167 3.184 4 3.5 4H7V5.375C7 5.475 7.00433 5.57933 7.013 5.688C7.02167 5.79667 7.034 5.90067 7.05 6H3.85L2.8 9H9.175L12.525 12.35C12.3583 12.4833 12.2293 12.65 12.138 12.85C12.0467 13.05 12.0007 13.2667 12 13.5C12 13.9167 12.146 14.271 12.438 14.563C12.73 14.855 13.084 15.0007 13.5 15C13.8333 15 14.1333 14.9 14.4 14.7C14.6667 14.5 14.8417 14.2417 14.925 13.925C15.1083 13.9583 15.2873 13.9833 15.462 14C15.6367 14.0167 15.816 14.0083 16 13.975C16.3667 13.9417 16.721 13.85 17.063 13.7C17.405 13.55 17.7173 13.3417 18 13.075V19C18 19.2833 17.904 19.521 17.712 19.713C17.52 19.905 17.2827 20.0007 17 20H16C15.7167 20 15.4793 19.904 15.288 19.712C15.0967 19.52 15.0007 19.2827 15 19V18H3V19C3 19.2833 2.904 19.521 2.712 19.713C2.52 19.905 2.28267 20.0007 2 20H1ZM4.5 15C4.91667 15 5.271 14.8543 5.563 14.563C5.855 14.2717 6.00067 13.9173 6 13.5C5.99933 13.0827 5.85367 12.7287 5.563 12.438C5.27233 12.1473 4.918 12.0013 4.5 12C4.082 11.9987 3.728 12.1447 3.438 12.438C3.148 12.7313 3.002 13.0853 3 13.5C2.998 13.9147 3.144 14.269 3.438 14.563C3.732 14.857 4.086 15.0027 4.5 15ZM14.55 11.55L9.45 6.45C9.31667 6.31667 9.20833 6.154 9.125 5.962C9.04167 5.77 9 5.57467 9 5.376V1.5C9 1.08333 9.146 0.729333 9.438 0.438C9.73 0.146667 10.084 0.000666667 10.5 0H14.375C14.575 0 14.771 0.0416667 14.963 0.125C15.155 0.208333 15.3173 0.316667 15.45 0.45L20.55 5.55C20.8333 5.83333 20.975 6.18767 20.975 6.613C20.975 7.03833 20.8333 7.39233 20.55 7.675L16.675 11.55C16.3917 11.8333 16.0377 11.975 15.613 11.975C15.1883 11.975 14.834 11.8333 14.55 11.55ZM13 5C13.2833 5 13.521 4.904 13.713 4.712C13.905 4.52 14.0007 4.28267 14 4C13.9993 3.71733 13.9033 3.48 13.712 3.288C13.5207 3.096 13.2833 3 13 3C12.7167 3 12.4793 3.096 12.288 3.288C12.0967 3.48 12.0007 3.71733 12 4C11.9993 4.28267 12.0953 4.52033 12.288 4.713C12.4807 4.90567 12.718 5.00133 13 5Z" fill="black"/>
</svg>
